<svg width="1280" height="720" xmlns="http://www.w3.org/2000/svg" xmlns:xlink="http://www.w3.org/1999/xlink" overflow="hidden"><g><rect x="0" y="0" width="1280" height="720" fill="#FFFFFF"/><g><g><g><path d="M1212.26 102 1214.14 102 1214.14 93.32 1214.17 93.32 1217.29 102 1218.91 102 1222.03 93.32 1222.06 93.32 1222.06 102 1223.94 102 1223.94 90.75 1221.2 90.75 1218.18 99.55 1218.15 99.55 1215.05 90.75 1212.28 90.75 1212.28 102ZM1201.88 92.45 1205.44 92.45 1205.44 102 1207.41 102 1207.41 92.45 1210.99 92.45 1210.99 90.75 1201.89 90.75 1201.89 92.45ZM1179 102 1269 12 1214.83 12 1124.84 102 1179 102 1179 102ZM1166.09 51.19 1057.15 51.19C1023.95 51.19 1018.14 52.95 1003.91 67.17 990.61 80.48 969 102 969 102L1016.19 102 1027.45 90.74C1034.85 83.34 1038.67 82.57 1054.21 82.57L1134.71 82.57 1166.09 51.19 1166.09 51.19 1166.09 51.19ZM1002.46 60.76C992.64 70.03 971.26 90.79 959.74 102L909 102C909 102 949.65 61.46 972.25 39.22 995.53 17.06 1007.14 12.01 1049.84 12.01L1205.28 12.01 1171.62 45.67 1053.01 45.67C1023 45.66 1016.26 47.74 1002.46 60.76L1002.46 60.76Z" fill="#E10600" fill-rule="evenodd"/></g></g></g></g></svg>